<?xml version="1.0" standalone="no"?>
<!DOCTYPE svg PUBLIC "-//W3C//DTD SVG 20010904//EN"
 "http://www.w3.org/TR/2001/REC-SVG-20010904/DTD/svg10.dtd">
<svg version="1.0" xmlns="http://www.w3.org/2000/svg"
 width="4152.000000pt" height="3800.000000pt" viewBox="0 0 4152.000000 3800.000000"
 preserveAspectRatio="xMidYMid meet">

<g transform="translate(0.000000,3800.000000) scale(0.100000,-0.100000)"
fill="#000000" stroke="none">
<path d="M36 37967 c1 -17 2 -8567 2 -18999 l2 -18968 20685 0 20685 0 0
19000 0 19000 -20687 0 -20688 0 1 -33z m22634 -1204 c69 -32 228 -114 665
-346 264 -139 364 -196 445 -252 41 -29 134 -83 205 -120 290 -151 483 -254
530 -282 28 -16 93 -51 145 -77 52 -27 100 -52 105 -56 6 -4 87 -48 180 -97
154 -81 463 -248 1035 -556 113 -61 228 -123 255 -137 28 -15 145 -78 260
-140 116 -62 235 -126 265 -143 110 -58 408 -221 515 -280 61 -34 127 -69 148
-79 21 -11 40 -25 43 -33 6 -14 -18 -72 -46 -115 -10 -14 -42 -72 -72 -130
-159 -302 -183 -347 -198 -375 -68 -123 -104 -191 -228 -425 -77 -146 -152
-287 -167 -315 -55 -100 -93 -172 -145 -270 -74 -140 -83 -155 -95 -155 -6 0
-101 49 -210 108 -170 92 -403 216 -900 477 -49 26 -164 87 -255 135 -91 48
-266 140 -390 205 -124 65 -277 146 -341 181 -64 35 -119 64 -122 64 -5 0 -74
36 -347 183 -141 75 -164 89 -201 121 -21 17 -118 74 -216 126 -98 51 -257
135 -353 185 -232 122 -342 181 -415 220 -33 18 -154 82 -270 143 -420 219
-472 246 -565 297 -52 29 -198 105 -325 170 -126 65 -238 125 -247 133 -23 19
-23 49 0 87 10 17 49 89 87 160 37 72 71 135 75 140 4 6 38 69 75 140 76 146
247 458 382 701 164 292 208 347 329 405 121 57 243 58 364 2z m6718 -1489
c59 -31 222 -115 362 -186 140 -72 293 -151 340 -176 47 -25 164 -85 260 -135
365 -187 547 -281 615 -317 39 -21 147 -77 240 -125 94 -48 211 -109 260 -135
78 -42 201 -106 380 -199 352 -184 541 -291 575 -323 47 -45 82 -111 100 -186
21 -89 21 -89 -177 -190 -171 -86 -278 -133 -335 -147 -23 -6 -30 -2 -51 32
-47 74 -104 121 -209 174 -57 28 -155 80 -218 114 -63 34 -180 96 -260 137
-80 42 -215 113 -300 158 -144 76 -424 223 -720 378 -69 35 -129 68 -135 72
-5 4 -82 44 -170 90 -188 97 -399 207 -505 263 -41 22 -145 75 -230 119 -205
106 -220 116 -220 140 0 19 180 386 227 461 14 22 31 37 43 37 11 0 68 -25
128 -56z m-17335 -457 c39 1 67 -2 67 -7 0 -9 31 -11 154 -10 21 0 43 -3 50
-8 6 -5 70 -12 141 -16 486 -24 1088 -122 1700 -276 663 -168 1114 -339 1555
-593 238 -136 266 -154 441 -279 233 -167 431 -332 604 -504 566 -562 948
-1162 1295 -2034 72 -180 206 -598 220 -687 12 -68 2 -236 -14 -259 -8 -10
-58 -23 -146 -39 -74 -13 -281 -50 -460 -84 -179 -33 -437 -80 -575 -105 -137
-25 -322 -58 -410 -75 -88 -16 -212 -39 -275 -50 -342 -60 -585 -104 -665
-121 -204 -42 -549 -98 -576 -92 -11 2 -35 50 -69 135 -159 398 -431 873 -659
1149 -157 190 -468 464 -656 579 -214 130 -594 304 -819 374 -309 96 -725 184
-976 205 -69 5 -152 12 -185 15 -317 27 -812 4 -1165 -56 -474 -81 -883 -211
-1271 -404 -507 -254 -877 -534 -1236 -936 -335 -375 -607 -872 -776 -1414
-61 -197 -109 -399 -188 -795 -31 -158 -107 -649 -114 -740 -3 -47 -13 -132
-20 -190 -21 -154 -35 -482 -35 -840 0 -537 24 -850 99 -1295 133 -785 447
-1701 761 -2220 211 -350 374 -558 646 -827 153 -149 266 -249 383 -335 346
-256 704 -445 1151 -607 206 -74 694 -180 940 -203 206 -19 726 -13 890 11
169 24 484 88 575 116 17 6 86 25 155 45 253 70 519 165 963 341 298 118 344
137 667 274 252 107 384 162 455 191 109 43 269 128 327 174 111 89 196 228
225 371 14 71 15 116 4 434 -8 237 -10 529 -5 878 l7 522 -44 0 c-24 1 -832 0
-1795 0 l-1750 -1 -26 21 c-15 11 -36 35 -47 54 l-21 34 2 1268 3 1269 3512 3
c3278 2 3512 1 3515 -15 2 -9 0 -1340 -3 -2957 -6 -2617 -8 -2954 -22 -3056
-19 -134 -30 -177 -65 -245 -58 -116 -224 -295 -382 -412 -52 -39 -209 -141
-347 -227 -976 -604 -1844 -1013 -2833 -1335 -102 -33 -216 -69 -255 -80 -578
-164 -768 -208 -1305 -304 -225 -41 -328 -56 -475 -72 -77 -8 -160 -19 -185
-25 -25 -5 -126 -14 -225 -20 -99 -6 -265 -17 -370 -26 -265 -21 -809 -15
-1220 14 -170 12 -328 26 -350 32 -22 5 -89 14 -150 20 -60 6 -135 15 -165 20
-30 5 -113 19 -185 30 -648 107 -1478 354 -2081 621 -554 245 -1062 558 -1554
957 -138 112 -168 140 -408 377 -374 367 -620 669 -925 1130 -209 318 -448
757 -626 1150 -72 158 -223 534 -277 688 -190 545 -368 1258 -428 1722 -8 61
-21 160 -30 220 -8 61 -20 181 -26 268 -6 86 -15 179 -20 206 -29 152 -35
1022 -10 1381 18 260 51 610 65 690 9 47 22 139 29 205 36 303 107 665 227
1138 184 732 483 1469 832 2052 189 315 263 427 400 610 33 44 88 116 121 160
150 200 418 497 627 697 90 86 178 167 194 179 17 13 71 59 121 104 496 436
1261 902 1884 1147 41 16 89 35 105 42 81 36 425 151 615 206 411 118 784 194
1220 250 212 27 323 38 600 60 63 5 169 14 235 20 236 21 494 28 770 22 154
-4 310 -6 348 -5z m16527 -23 c25 -15 77 -43 115 -63 342 -182 500 -267 690
-371 17 -9 75 -41 130 -70 55 -29 105 -56 110 -60 6 -4 60 -33 120 -65 61 -32
133 -70 160 -85 124 -68 790 -427 915 -493 52 -27 138 -73 190 -102 52 -29
149 -82 215 -117 66 -36 147 -80 180 -98 33 -18 107 -57 165 -88 58 -30 143
-76 190 -102 47 -26 139 -76 205 -110 66 -34 125 -66 130 -70 6 -5 91 -50 190
-100 99 -51 185 -96 190 -100 6 -4 61 -33 123 -65 72 -37 112 -63 112 -74 0
-20 -43 -112 -102 -216 -25 -44 -82 -152 -128 -240 -46 -88 -120 -230 -165
-315 -104 -196 -160 -303 -298 -565 -60 -115 -126 -241 -147 -280 -21 -38 -60
-113 -87 -165 -28 -52 -76 -144 -108 -205 -32 -60 -129 -245 -215 -410 -86
-165 -202 -385 -257 -490 -55 -104 -155 -296 -223 -425 -123 -236 -144 -270
-164 -270 -6 0 -61 29 -122 64 -183 106 -604 331 -844 451 -172 86 -287 119
-450 130 -155 10 -224 9 -228 -3 -4 -14 81 -257 124 -350 45 -100 82 -147 274
-358 229 -251 314 -353 460 -549 331 -444 492 -821 571 -1335 17 -108 17 -408
0 -525 -72 -500 -334 -936 -743 -1238 -214 -158 -421 -262 -712 -358 l-185
-61 -53 25 c-64 30 -259 171 -307 221 l-34 35 34 56 c19 31 41 62 49 69 8 7
83 23 165 36 308 47 441 94 660 237 115 75 262 218 313 305 92 156 126 294
120 481 -5 138 -25 225 -85 377 -86 217 -361 569 -724 925 -477 468 -909 763
-1554 1063 -143 66 -540 213 -705 260 -102 29 -138 38 -400 101 -171 41 -416
88 -525 101 -49 6 -110 15 -135 21 -36 8 -433 40 -475 39 -362 -13 -588 -92
-766 -269 -53 -53 -76 -87 -117 -171 -74 -154 -86 -220 -79 -454 5 -188 6
-193 46 -326 86 -285 94 -457 25 -540 -26 -31 -130 -85 -218 -115 -47 -15 -50
-15 -67 2 -16 17 -136 249 -174 338 -69 162 -110 324 -137 545 -27 217 -27
293 0 485 37 251 94 425 205 619 74 130 109 177 198 271 32 33 71 74 86 90
169 183 503 406 748 500 341 131 597 175 1014 175 249 0 490 -23 751 -71 138
-26 499 -128 698 -198 109 -38 148 -47 160 -40 10 6 41 45 70 87 30 43 89 124
133 180 43 57 79 110 79 118 0 8 -23 26 -51 42 -28 15 -94 56 -147 91 -443
291 -673 420 -925 521 -224 89 -327 190 -327 323 0 56 44 177 107 297 31 58
97 184 148 280 50 96 136 258 190 360 54 102 178 338 275 525 184 355 412 787
558 1060 47 88 123 232 170 320 107 202 156 278 219 339 64 62 311 234 338
235 11 0 40 -11 65 -25z m4402 -3548 c65 -24 851 -419 1478 -743 85 -44 238
-123 340 -175 102 -52 280 -145 395 -205 116 -61 269 -141 340 -178 532 -276
676 -351 950 -495 310 -162 434 -229 640 -345 61 -34 146 -81 190 -105 44 -24
157 -86 250 -139 94 -53 196 -109 228 -126 31 -16 57 -36 57 -44 0 -7 -31 -68
-69 -135 -37 -66 -91 -164 -118 -216 -28 -52 -117 -219 -198 -370 -81 -151
-170 -318 -198 -370 -27 -52 -53 -99 -57 -105 -4 -5 -45 -82 -90 -170 -46 -88
-110 -206 -142 -263 -32 -57 -58 -107 -58 -111 0 -4 -9 -18 -19 -30 l-19 -22
-54 27 c-29 14 -96 50 -148 79 -52 29 -201 108 -330 175 -129 68 -251 132
-270 143 -19 11 -123 66 -230 122 -107 56 -274 144 -370 195 -96 51 -249 132
-340 180 -473 249 -558 294 -595 315 -41 23 -90 49 -460 242 -121 64 -233 123
-250 133 -16 10 -82 45 -145 78 -433 226 -565 296 -980 517 -157 84 -348 185
-425 225 -77 40 -167 87 -200 105 -33 18 -130 68 -215 110 -250 126 -257 133
-201 226 40 67 157 283 246 454 119 228 223 418 300 550 45 77 111 189 146
249 88 151 143 209 217 231 31 10 62 19 67 21 6 2 69 2 142 -1 107 -4 144 -9
195 -29z m-5628 -3425 c16 -30 25 -60 105 -356 151 -561 141 -505 101 -539
-41 -34 -171 -96 -280 -132 -273 -91 -514 32 -749 380 -90 134 -181 287 -181
305 0 22 97 59 595 232 116 40 246 87 290 105 44 18 86 33 92 33 7 1 19 -12
27 -28z m-2260 -837 c8 -3 27 -31 42 -62 121 -262 220 -431 363 -622 103 -139
304 -346 401 -415 39 -27 76 -54 83 -60 91 -76 335 -197 522 -260 270 -90 423
-112 875 -126 480 -14 553 -29 673 -138 91 -84 158 -221 186 -386 12 -70 7
-165 -10 -165 -5 0 -31 -14 -58 -30 -273 -168 -764 -239 -1251 -182 -338 41
-619 131 -1005 322 -411 204 -712 423 -1028 751 -190 196 -356 424 -472 652
-112 216 -136 294 -143 444 -5 139 -1 152 70 203 46 33 122 59 208 70 68 9
522 12 544 4z m-2011 -558 c14 -84 370 -750 527 -986 84 -127 126 -199 148
-256 39 -103 226 -338 451 -567 526 -536 1085 -875 1806 -1095 292 -89 674
-156 955 -168 80 -3 163 -8 185 -11 106 -16 640 1 845 27 47 6 157 19 245 30
88 11 198 27 245 35 111 19 144 19 162 -2 20 -24 151 -331 177 -417 25 -81 28
-184 6 -226 -18 -36 -88 -84 -163 -115 -72 -29 -465 -138 -596 -165 -386 -79
-696 -106 -1101 -96 -270 6 -326 11 -535 45 -800 130 -1598 508 -2367 1122
-70 56 -155 128 -188 158 -33 31 -75 68 -93 84 -19 16 -32 37 -32 51 0 13 -10
34 -23 47 -262 269 -561 656 -894 1155 -547 820 -534 795 -534 1000 0 101 10
130 58 176 56 53 115 70 273 79 167 9 183 13 294 72 75 41 103 53 132 56 6 0
14 -14 17 -33z m-2025 -580 c26 -13 64 -42 84 -63 59 -62 158 -235 243 -428
394 -893 841 -1568 1430 -2161 271 -273 430 -409 723 -621 86 -63 183 -136
214 -164 232 -202 971 -556 1608 -770 478 -160 967 -271 1385 -313 319 -32
398 -37 635 -37 338 0 529 24 815 101 494 133 547 143 750 144 178 1 231 -13
308 -83 37 -35 63 -70 85 -118 51 -112 63 -172 69 -365 l6 -177 -55 -24 c-75
-33 -352 -121 -511 -162 -303 -78 -633 -134 -952 -159 -110 -9 -230 -21 -267
-26 -104 -15 -574 -12 -780 5 -648 55 -1013 120 -1542 274 -419 122 -785 262
-1145 437 -240 117 -345 175 -435 241 -34 25 -110 75 -171 110 -349 207 -756
504 -1090 796 -87 76 -437 419 -548 536 -252 267 -554 653 -789 1011 -113 171
-297 490 -393 680 -37 74 -71 140 -75 145 -23 32 -186 403 -262 595 -48 124
-95 240 -103 258 -31 67 -17 93 72 139 366 189 445 220 566 222 64 1 86 -3
125 -23z m-11913 -8256 c369 -6 810 -15 980 -20 682 -22 1185 -39 1285 -44
239 -13 871 -60 1010 -75 47 -5 150 -15 230 -21 80 -6 168 -15 195 -20 28 -6
113 -17 190 -25 561 -59 1457 -231 1815 -348 456 -150 836 -378 1169 -702 311
-302 523 -602 731 -1030 204 -422 393 -1060 460 -1550 11 -82 26 -195 34 -250
8 -55 14 -107 14 -115 1 -8 3 -28 6 -45 8 -42 8 -607 1 -680 -23 -234 -84
-603 -120 -730 -128 -448 -231 -697 -432 -1049 -142 -248 -254 -410 -423 -612
-543 -649 -1357 -1152 -2300 -1424 -189 -54 -357 -92 -600 -136 -121 -22 -209
-42 -207 -48 2 -6 29 -26 60 -46 136 -86 320 -218 562 -404 459 -353 1044
-938 1480 -1480 326 -405 745 -995 1050 -1481 44 -70 102 -162 129 -204 63
-98 185 -296 299 -486 49 -82 109 -179 132 -215 23 -36 108 -175 187 -310 221
-373 496 -825 628 -1035 236 -375 304 -481 473 -735 104 -156 208 -309 231
-340 109 -143 168 -232 159 -241 -15 -15 -3654 -6 -3718 9 -27 7 -77 26 -111
43 -138 71 -245 185 -422 449 -54 80 -190 277 -302 439 -113 161 -231 332
-264 380 -32 47 -89 129 -126 181 -79 110 -136 193 -261 380 -50 74 -99 144
-109 155 -9 11 -66 92 -126 180 -60 88 -136 201 -171 250 -34 50 -143 212
-242 360 -100 149 -194 288 -209 310 -125 177 -533 800 -692 1055 -310 499
-396 635 -496 785 -184 277 -296 416 -529 654 -291 298 -588 509 -947 674
-323 148 -711 253 -1023 277 -77 6 -159 15 -183 20 -54 13 -336 12 -467 0 -55
-5 -227 -13 -382 -16 l-283 -7 0 -3245 0 -3245 -44 -43 -43 -44 -1562 0 -1561
0 2 7923 3 7922 150 13 c158 14 639 21 2293 33 529 3 966 9 969 13 10 9 681 8
1428 -4z m15705 -10 c355 -6 710 -15 790 -20 80 -5 303 -14 495 -20 340 -10
476 -17 790 -40 704 -50 925 -74 1340 -141 1346 -220 2204 -609 3058 -1387
131 -119 268 -264 430 -455 86 -102 292 -372 348 -457 89 -133 199 -311 234
-375 21 -38 48 -86 61 -106 57 -92 241 -467 332 -679 218 -507 424 -1136 534
-1630 61 -278 139 -737 173 -1015 5 -50 35 -380 57 -650 16 -185 16 -1501 0
-1765 -6 -107 -18 -289 -26 -405 -8 -115 -18 -266 -21 -335 -6 -113 -28 -332
-54 -530 -38 -290 -55 -394 -103 -635 -17 -82 -37 -184 -45 -225 -59 -303
-271 -946 -428 -1300 -328 -740 -760 -1379 -1309 -1939 -679 -690 -1437 -1186
-2206 -1444 -272 -91 -436 -130 -780 -183 -204 -32 -256 -36 -560 -45 -555
-16 -2307 -33 -3255 -31 -1084 2 -4409 17 -4412 20 -2 1 -3 3543 -3 7871 l0
7869 23 5 c12 3 105 13 207 21 149 13 467 18 1624 25 791 6 1441 13 1444 16 4
3 144 3 312 0 168 -3 595 -10 950 -15z m11148 -11311 c256 -18 472 -77 713
-195 230 -113 388 -229 573 -421 233 -242 403 -544 480 -848 29 -116 76 -452
76 -546 0 -106 -33 -363 -61 -474 -106 -423 -324 -784 -642 -1064 -273 -240
-611 -406 -927 -455 -210 -33 -548 -45 -741 -26 -268 27 -448 74 -634 165
-571 281 -957 784 -1097 1430 -27 123 -31 165 -35 345 -3 127 -1 230 6 270 6
36 18 110 27 165 17 110 47 225 101 385 45 135 84 220 163 350 195 325 395
519 715 695 147 81 391 164 590 201 156 29 471 39 693 23z"/>
<path d="M7598 14842 l-68 -3 0 -2010 c0 -1771 2 -2010 15 -2015 20 -8 933 13
1395 31 201 8 592 19 870 25 278 6 559 15 625 20 66 5 307 16 535 25 228 9
431 20 450 25 19 5 163 16 320 25 157 8 323 20 370 25 47 5 150 17 230 25 481
53 831 199 1096 457 205 200 309 395 398 746 47 182 80 516 72 709 -8 176 -42
503 -61 586 -69 295 -199 534 -399 732 -284 281 -625 434 -1114 499 -59 8
-114 17 -122 20 -13 5 -123 10 -730 32 -85 3 -168 9 -185 14 -75 22 -630 31
-2085 33 -850 1 -1575 1 -1612 -1z"/>
<path d="M25730 14718 c-3 -3 -120 -9 -260 -12 -140 -4 -349 -11 -465 -15
-115 -5 -219 -9 -230 -9 -263 -1 -1246 -36 -1249 -44 -1 -2 0 -2310 2 -5130
l2 -5127 378 -4 c207 -2 645 -9 972 -16 683 -15 1495 -9 1795 13 110 8 274 20
365 26 91 6 194 15 230 20 36 6 115 17 175 25 489 67 976 267 1340 549 94 73
303 275 381 367 137 161 294 397 422 631 49 90 170 371 212 494 50 145 142
469 174 614 29 133 50 259 76 455 10 77 21 147 24 155 4 13 39 387 38 415 0 6
-4 20 -7 33 -4 13 -3 22 3 22 5 0 12 10 15 23 8 32 25 285 32 477 4 91 11 215
16 275 16 180 22 726 10 870 -7 72 -14 180 -17 240 -11 238 -14 283 -19 360
-2 44 -9 112 -14 150 -5 39 -17 140 -25 225 -9 85 -25 225 -36 310 -11 85 -22
182 -25 215 -4 33 -13 96 -20 140 -8 44 -19 124 -25 178 -5 54 -14 117 -20
140 -5 23 -18 101 -29 173 -39 253 -128 614 -204 824 -39 107 -145 356 -184
434 -131 259 -326 529 -515 711 -298 289 -633 483 -1032 600 -122 36 -381 88
-491 99 -33 4 -143 16 -245 27 -240 26 -406 37 -785 54 -207 8 -760 18 -765
13z"/>
<path d="M36389 5775 c-49 -18 -100 -44 -121 -62 -15 -13 -11 -22 41 -111 32
-53 131 -227 221 -387 90 -159 190 -337 223 -395 32 -58 88 -159 124 -225 98
-178 107 -191 143 -199 18 -3 124 -6 236 -6 l204 0 -6 28 c-4 15 -22 70 -41
122 -19 52 -62 176 -95 275 -97 292 -183 455 -344 650 -138 168 -261 271 -371
311 -48 17 -167 17 -214 -1z"/>
<path d="M34922 5741 c-68 -54 -277 -248 -396 -367 -236 -237 -320 -378 -380
-640 -35 -152 -33 -324 5 -344 10 -6 61 -13 112 -17 289 -19 452 119 557 472
18 61 47 142 65 180 37 81 142 254 225 370 169 237 219 309 216 312 -7 8 -302
73 -327 73 -17 0 -47 -16 -77 -39z"/>
<path d="M35585 5664 c-13 -14 -93 -141 -177 -281 -84 -139 -181 -300 -215
-356 -35 -56 -67 -111 -73 -122 -5 -11 -20 -37 -32 -57 -13 -20 -48 -79 -78
-130 -30 -51 -66 -111 -80 -133 -103 -156 -103 -157 -89 -166 8 -5 194 -8 424
-6 l410 2 3 638 3 637 -36 0 c-26 0 -43 -7 -60 -26z"/>
<path d="M35936 5643 c-3 -27 -4 -313 -3 -638 l2 -590 366 -3 c202 -1 376 1
388 6 20 7 20 9 -15 62 -20 30 -81 140 -136 244 -55 105 -106 199 -113 210
-17 27 -194 355 -302 561 -47 88 -92 168 -100 178 -9 9 -30 17 -49 17 -31 0
-32 -2 -38 -47z"/>
<path d="M34265 4144 c-11 -2 -46 -6 -77 -9 l-58 -6 0 -96 c0 -53 4 -112 9
-132 5 -20 14 -70 20 -111 20 -149 95 -325 201 -472 124 -174 405 -416 666
-576 56 -34 108 -62 116 -62 16 0 181 107 186 121 2 5 -25 49 -61 97 -261 354
-385 567 -442 757 -45 152 -67 206 -116 280 -78 120 -162 175 -305 200 -85 15
-98 16 -139 9z"/>
<path d="M36972 4093 c-10 -16 -40 -68 -67 -118 -27 -49 -57 -106 -68 -125
-11 -19 -33 -60 -50 -90 -17 -30 -74 -131 -127 -225 -53 -93 -118 -208 -143
-255 -26 -47 -59 -105 -74 -130 -55 -94 -113 -198 -149 -267 -45 -85 -43 -90
59 -139 82 -39 89 -38 232 42 141 79 300 193 402 288 108 101 249 289 308 409
81 168 175 491 175 605 l0 32 -239 0 -240 0 -19 -27z"/>
<path d="M34845 4091 c-3 -6 19 -47 48 -93 29 -46 68 -110 87 -143 30 -54 75
-132 300 -515 37 -63 88 -153 114 -200 122 -219 200 -310 265 -310 l21 0 0
635 -1 635 -414 0 c-246 0 -416 -4 -420 -9z"/>
<path d="M35933 3478 c-1 -343 0 -630 2 -638 4 -12 15 -15 45 -12 l40 4 76
147 c42 80 115 218 162 306 47 88 144 275 215 415 72 140 148 283 169 318 21
34 38 67 38 72 0 6 -135 10 -373 10 l-373 0 -1 -622z"/>
</g>
</svg>
